{
    "asset" : {
        "generator" : "Khronos glTF Blender I/O v1.6.16",
        "version" : "2.0"
    },
    "scene" : 0,
    "scenes" : [
        {
            "name" : "Scene",
            "nodes" : [
                0
            ]
        }
    ],
    "nodes" : [
        {
            "mesh" : 0,
            "name" : "can"
        }
    ],
    "materials" : [
        {
            "doubleSided" : true,
            "name" : "bepis_can",
            "pbrMetallicRoughness" : {
                "baseColorTexture" : {
                    "index" : 0
                },
                "metallicFactor" : 0.8861386179924011,
                "roughnessFactor" : 0.5
            }
        }
    ],
    "meshes" : [
        {
            "name" : "Cylinder",
            "primitives" : [
                {
                    "attributes" : {
                        "POSITION" : 0,
                        "NORMAL" : 1,
                        "TEXCOORD_0" : 2
                    },
                    "indices" : 3,
                    "material" : 0
                }
            ]
        }
    ],
    "textures" : [
        {
            "sampler" : 0,
            "source" : 0
        }
    ],
    "images" : [
        {
            "bufferView" : 4,
            "mimeType" : "image/png",
            "name" : "sodo_can1"
        }
    ],
    "accessors" : [
        {
            "bufferView" : 0,
            "componentType" : 5126,
            "count" : 1406,
            "max" : [
                0.029289890080690384,
                0.050054483115673065,
                0.029573017731308937
            ],
            "min" : [
                -0.029667386785149574,
                -0.04935862496495247,
                -0.030473388731479645
            ],
            "type" : "VEC3"
        },
        {
            "bufferView" : 1,
            "componentType" : 5126,
            "count" : 1406,
            "type" : "VEC3"
        },
        {
            "bufferView" : 2,
            "componentType" : 5126,
            "count" : 1406,
            "type" : "VEC2"
        },
        {
            "bufferView" : 3,
            "componentType" : 5123,
            "count" : 1524,
            "type" : "SCALAR"
        }
    ],
    "bufferViews" : [
        {
            "buffer" : 0,
            "byteLength" : 16872,
            "byteOffset" : 0
        },
        {
            "buffer" : 0,
            "byteLength" : 16872,
            "byteOffset" : 16872
        },
        {
            "buffer" : 0,
            "byteLength" : 11248,
            "byteOffset" : 33744
        },
        {
            "buffer" : 0,
            "byteLength" : 3048,
            "byteOffset" : 44992
        },
        {
            "buffer" : 0,
            "byteLength" : 109032,
            "byteOffset" : 48040
        }
    ],
    "samplers" : [
        {
            "magFilter" : 9729,
            "minFilter" : 9987
        }
    ],
    "buffers" : [
        {
            "byteLength" : 157072,
            "uri" : "data:application/octet-stream;base64,"
        }
    ]
}
