{
    "asset" : {
        "generator" : "Khronos glTF Blender I/O v1.6.16",
        "version" : "2.0"
    },
    "scene" : 0,
    "scenes" : [
        {
            "name" : "Scene",
            "nodes" : [
                0
            ]
        }
    ],
    "nodes" : [
        {
            "mesh" : 0,
            "name" : "chair"
        }
    ],
    "materials" : [
        {
            "doubleSided" : true,
            "name" : "PK_grid1",
            "pbrMetallicRoughness" : {
                "baseColorTexture" : {
                    "index" : 0
                },
                "metallicFactor" : 0,
                "roughnessFactor" : 0.4000000059604645
            }
        }
    ],
    "meshes" : [
        {
            "name" : "Cube.005",
            "primitives" : [
                {
                    "attributes" : {
                        "POSITION" : 0,
                        "NORMAL" : 1,
                        "TEXCOORD_0" : 2
                    },
                    "indices" : 3,
                    "material" : 0
                }
            ]
        }
    ],
    "textures" : [
        {
            "sampler" : 0,
            "source" : 0
        }
    ],
    "images" : [
        {
            "bufferView" : 4,
            "mimeType" : "image/png",
            "name" : "PK_color_grid"
        }
    ],
    "accessors" : [
        {
            "bufferView" : 0,
            "componentType" : 5126,
            "count" : 623,
            "max" : [
                0.22441768646240234,
                0.9894626140594482,
                0.2823232412338257
            ],
            "min" : [
                -0.2277686595916748,
                0.0027147531509399414,
                -0.21611903607845306
            ],
            "type" : "VEC3"
        },
        {
            "bufferView" : 1,
            "componentType" : 5126,
            "count" : 623,
            "type" : "VEC3"
        },
        {
            "bufferView" : 2,
            "componentType" : 5126,
            "count" : 623,
            "type" : "VEC2"
        },
        {
            "bufferView" : 3,
            "componentType" : 5123,
            "count" : 1290,
            "type" : "SCALAR"
        }
    ],
    "bufferViews" : [
        {
            "buffer" : 0,
            "byteLength" : 7476,
            "byteOffset" : 0
        },
        {
            "buffer" : 0,
            "byteLength" : 7476,
            "byteOffset" : 7476
        },
        {
            "buffer" : 0,
            "byteLength" : 4984,
            "byteOffset" : 14952
        },
        {
            "buffer" : 0,
            "byteLength" : 2580,
            "byteOffset" : 19936
        },
        {
            "buffer" : 0,
            "byteLength" : 2681,
            "byteOffset" : 22516
        }
    ],
    "samplers" : [
        {
            "magFilter" : 9729,
            "minFilter" : 9987
        }
    ],
    "buffers" : [
        {
            "byteLength" : 25200,
            "uri" : "data:application/octet-stream;base64,"
        }
    ]
}
