{
    "asset" : {
        "generator" : "Khronos glTF Blender I/O v1.6.16",
        "version" : "2.0"
    },
    "scene" : 0,
    "scenes" : [
        {
            "name" : "Scene",
            "nodes" : [
                0
            ]
        }
    ],
    "nodes" : [
        {
            "mesh" : 0,
            "name" : "computer",
            "translation" : [
                -0.8310495615005493,
                0.3056391775608063,
                -0.030942916870117188
            ]
        }
    ],
    "materials" : [
        {
            "doubleSided" : true,
            "name" : "PK_grid1",
            "pbrMetallicRoughness" : {
                "baseColorTexture" : {
                    "index" : 0
                },
                "metallicFactor" : 0,
                "roughnessFactor" : 0.4000000059604645
            }
        }
    ],
    "meshes" : [
        {
            "name" : "Cube.003",
            "primitives" : [
                {
                    "attributes" : {
                        "POSITION" : 0,
                        "NORMAL" : 1,
                        "TEXCOORD_0" : 2
                    },
                    "indices" : 3,
                    "material" : 0
                }
            ]
        }
    ],
    "textures" : [
        {
            "sampler" : 0,
            "source" : 0
        }
    ],
    "images" : [
        {
            "bufferView" : 4,
            "mimeType" : "image/png",
            "name" : "PK_color_grid"
        }
    ],
    "accessors" : [
        {
            "bufferView" : 0,
            "componentType" : 5126,
            "count" : 6950,
            "max" : [
                0.14252686500549316,
                0.30480000376701355,
                0.30480000376701355
            ],
            "min" : [
                -0.1425268054008484,
                -0.30480000376701355,
                -0.30480000376701355
            ],
            "type" : "VEC3"
        },
        {
            "bufferView" : 1,
            "componentType" : 5126,
            "count" : 6950,
            "type" : "VEC3"
        },
        {
            "bufferView" : 2,
            "componentType" : 5126,
            "count" : 6950,
            "type" : "VEC2"
        },
        {
            "bufferView" : 3,
            "componentType" : 5123,
            "count" : 11478,
            "type" : "SCALAR"
        }
    ],
    "bufferViews" : [
        {
            "buffer" : 0,
            "byteLength" : 83400,
            "byteOffset" : 0
        },
        {
            "buffer" : 0,
            "byteLength" : 83400,
            "byteOffset" : 83400
        },
        {
            "buffer" : 0,
            "byteLength" : 55600,
            "byteOffset" : 166800
        },
        {
            "buffer" : 0,
            "byteLength" : 22956,
            "byteOffset" : 222400
        },
        {
            "buffer" : 0,
            "byteLength" : 2681,
            "byteOffset" : 245356
        }
    ],
    "samplers" : [
        {
            "magFilter" : 9729,
            "minFilter" : 9987
        }
    ],
    "buffers" : [
        {
            "byteLength" : 248040,
            "uri" : "data:application/octet-stream;base64,"
        }
    ]
}
