{
    "asset" : {
        "generator" : "Khronos glTF Blender I/O v1.6.16",
        "version" : "2.0"
    },
    "scene" : 0,
    "scenes" : [
        {
            "name" : "Scene",
            "nodes" : [
                0,
                1
            ]
        }
    ],
    "nodes" : [
        {
            "mesh" : 0,
            "name" : "hunter",
            "translation" : [
                0,
                1.0058400630950928,
                0
            ]
        },
        {
            "mesh" : 1,
            "name" : "sword",
            "translation" : [
                0,
                0,
                0.04282503202557564
            ]
        }
    ],
    "materials" : [
        {
            "doubleSided" : true,
            "name" : "Material.001",
            "pbrMetallicRoughness" : {
                "baseColorTexture" : {
                    "index" : 0
                },
                "metallicFactor" : 0,
                "roughnessFactor" : 0.4000000059604645
            }
        },
        {
            "doubleSided" : true,
            "name" : "Material.002",
            "pbrMetallicRoughness" : {
                "baseColorTexture" : {
                    "index" : 1
                },
                "metallicFactor" : 0,
                "roughnessFactor" : 0.5
            }
        }
    ],
    "meshes" : [
        {
            "name" : "Cube.001",
            "primitives" : [
                {
                    "attributes" : {
                        "POSITION" : 0,
                        "NORMAL" : 1,
                        "TEXCOORD_0" : 2
                    },
                    "indices" : 3,
                    "material" : 0
                }
            ]
        },
        {
            "name" : "Cube.002",
            "primitives" : [
                {
                    "attributes" : {
                        "POSITION" : 4,
                        "NORMAL" : 5,
                        "TEXCOORD_0" : 6
                    },
                    "indices" : 7,
                    "material" : 1
                }
            ]
        }
    ],
    "textures" : [
        {
            "sampler" : 0,
            "source" : 0
        },
        {
            "sampler" : 0,
            "source" : 0
        }
    ],
    "images" : [
        {
            "bufferView" : 4,
            "mimeType" : "image/png",
            "name" : "PK_color_grid"
        }
    ],
    "accessors" : [
        {
            "bufferView" : 0,
            "componentType" : 5126,
            "count" : 3098,
            "max" : [
                0.2197432518005371,
                0.776240348815918,
                0.2197432518005371
            ],
            "min" : [
                -0.2197432518005371,
                -0.9182859659194946,
                -0.2197432518005371
            ],
            "type" : "VEC3"
        },
        {
            "bufferView" : 1,
            "componentType" : 5126,
            "count" : 3098,
            "type" : "VEC3"
        },
        {
            "bufferView" : 2,
            "componentType" : 5126,
            "count" : 3098,
            "type" : "VEC2"
        },
        {
            "bufferView" : 3,
            "componentType" : 5123,
            "count" : 3300,
            "type" : "SCALAR"
        },
        {
            "bufferView" : 5,
            "componentType" : 5126,
            "count" : 94,
            "max" : [
                0.10651138424873352,
                1.4702337980270386,
                0.17444200813770294
            ],
            "min" : [
                -0.03898786008358002,
                0.15953026711940765,
                0.07951559126377106
            ],
            "type" : "VEC3"
        },
        {
            "bufferView" : 6,
            "componentType" : 5126,
            "count" : 94,
            "type" : "VEC3"
        },
        {
            "bufferView" : 7,
            "componentType" : 5126,
            "count" : 94,
            "type" : "VEC2"
        },
        {
            "bufferView" : 8,
            "componentType" : 5123,
            "count" : 156,
            "type" : "SCALAR"
        }
    ],
    "bufferViews" : [
        {
            "buffer" : 0,
            "byteLength" : 37176,
            "byteOffset" : 0
        },
        {
            "buffer" : 0,
            "byteLength" : 37176,
            "byteOffset" : 37176
        },
        {
            "buffer" : 0,
            "byteLength" : 24784,
            "byteOffset" : 74352
        },
        {
            "buffer" : 0,
            "byteLength" : 6600,
            "byteOffset" : 99136
        },
        {
            "buffer" : 0,
            "byteLength" : 2681,
            "byteOffset" : 105736
        },
        {
            "buffer" : 0,
            "byteLength" : 1128,
            "byteOffset" : 108420
        },
        {
            "buffer" : 0,
            "byteLength" : 1128,
            "byteOffset" : 109548
        },
        {
            "buffer" : 0,
            "byteLength" : 752,
            "byteOffset" : 110676
        },
        {
            "buffer" : 0,
            "byteLength" : 312,
            "byteOffset" : 111428
        }
    ],
    "samplers" : [
        {
            "magFilter" : 9729,
            "minFilter" : 9987
        }
    ],
    "buffers" : [
        {
            "byteLength" : 111740,
            "uri" : "data:application/octet-stream;base64,"
        }
    ]
}
