{
    "asset" : {
        "generator" : "Khronos glTF Blender I/O v1.6.16",
        "version" : "2.0"
    },
    "scene" : 0,
    "scenes" : [
        {
            "name" : "Scene",
            "nodes" : [
                0
            ]
        }
    ],
    "nodes" : [
        {
            "mesh" : 0,
            "name" : "monitor",
            "translation" : [
                0.0009802579879760742,
                0.2334231436252594,
                -0.008236926048994064
            ]
        }
    ],
    "materials" : [
        {
            "doubleSided" : true,
            "name" : "PK_grid1",
            "pbrMetallicRoughness" : {
                "baseColorTexture" : {
                    "index" : 0
                },
                "metallicFactor" : 0,
                "roughnessFactor" : 0.4000000059604645
            }
        }
    ],
    "meshes" : [
        {
            "name" : "Cube.004",
            "primitives" : [
                {
                    "attributes" : {
                        "POSITION" : 0,
                        "NORMAL" : 1,
                        "TEXCOORD_0" : 2
                    },
                    "indices" : 3,
                    "material" : 0
                }
            ]
        }
    ],
    "textures" : [
        {
            "sampler" : 0,
            "source" : 0
        }
    ],
    "images" : [
        {
            "bufferView" : 4,
            "mimeType" : "image/png",
            "name" : "PK_color_grid"
        }
    ],
    "accessors" : [
        {
            "bufferView" : 0,
            "componentType" : 5126,
            "count" : 172,
            "max" : [
                0.30480003356933594,
                0.36595049500465393,
                0.11745139956474304
            ],
            "min" : [
                -0.3047999143600464,
                -0.2327800989151001,
                -0.09194938838481903
            ],
            "type" : "VEC3"
        },
        {
            "bufferView" : 1,
            "componentType" : 5126,
            "count" : 172,
            "type" : "VEC3"
        },
        {
            "bufferView" : 2,
            "componentType" : 5126,
            "count" : 172,
            "type" : "VEC2"
        },
        {
            "bufferView" : 3,
            "componentType" : 5123,
            "count" : 264,
            "type" : "SCALAR"
        }
    ],
    "bufferViews" : [
        {
            "buffer" : 0,
            "byteLength" : 2064,
            "byteOffset" : 0
        },
        {
            "buffer" : 0,
            "byteLength" : 2064,
            "byteOffset" : 2064
        },
        {
            "buffer" : 0,
            "byteLength" : 1376,
            "byteOffset" : 4128
        },
        {
            "buffer" : 0,
            "byteLength" : 528,
            "byteOffset" : 5504
        },
        {
            "buffer" : 0,
            "byteLength" : 2681,
            "byteOffset" : 6032
        }
    ],
    "samplers" : [
        {
            "magFilter" : 9729,
            "minFilter" : 9987
        }
    ],
    "buffers" : [
        {
            "byteLength" : 8716,
            "uri" : "data:application/octet-stream;base64,"
        }
    ]
}
