{
    "asset" : {
        "generator" : "Khronos glTF Blender I/O v1.6.16",
        "version" : "2.0"
    },
    "scene" : 0,
    "scenes" : [
        {
            "name" : "Scene",
            "nodes" : [
                0
            ]
        }
    ],
    "nodes" : [
        {
            "mesh" : 0,
            "name" : "toilet_paper"
        }
    ],
    "materials" : [
        {
            "doubleSided" : true,
            "name" : "toiletpaper",
            "pbrMetallicRoughness" : {
                "baseColorTexture" : {
                    "index" : 0
                },
                "metallicFactor" : 0,
                "roughnessFactor" : 0.5
            }
        }
    ],
    "meshes" : [
        {
            "name" : "Cylinder",
            "primitives" : [
                {
                    "attributes" : {
                        "POSITION" : 0,
                        "NORMAL" : 1,
                        "TEXCOORD_0" : 2
                    },
                    "indices" : 3,
                    "material" : 0
                }
            ]
        }
    ],
    "textures" : [
        {
            "sampler" : 0,
            "source" : 0
        }
    ],
    "images" : [
        {
            "bufferView" : 4,
            "mimeType" : "image/png",
            "name" : "toiletpaper"
        }
    ],
    "accessors" : [
        {
            "bufferView" : 0,
            "componentType" : 5126,
            "count" : 5904,
            "max" : [
                0.05914831534028053,
                0.04940534383058548,
                0.05966797098517418
            ],
            "min" : [
                -0.06414623558521271,
                -0.051828376948833466,
                -0.05843840166926384
            ],
            "type" : "VEC3"
        },
        {
            "bufferView" : 1,
            "componentType" : 5126,
            "count" : 5904,
            "type" : "VEC3"
        },
        {
            "bufferView" : 2,
            "componentType" : 5126,
            "count" : 5904,
            "type" : "VEC2"
        },
        {
            "bufferView" : 3,
            "componentType" : 5123,
            "count" : 9816,
            "type" : "SCALAR"
        }
    ],
    "bufferViews" : [
        {
            "buffer" : 0,
            "byteLength" : 70848,
            "byteOffset" : 0
        },
        {
            "buffer" : 0,
            "byteLength" : 70848,
            "byteOffset" : 70848
        },
        {
            "buffer" : 0,
            "byteLength" : 47232,
            "byteOffset" : 141696
        },
        {
            "buffer" : 0,
            "byteLength" : 19632,
            "byteOffset" : 188928
        },
        {
            "buffer" : 0,
            "byteLength" : 20559,
            "byteOffset" : 208560
        }
    ],
    "samplers" : [
        {
            "magFilter" : 9729,
            "minFilter" : 9987
        }
    ],
    "buffers" : [
        {
            "byteLength" : 229120,
            "uri" : "data:application/octet-stream;base64,"
        }
    ]
}
