{
    "asset" : {
        "generator" : "Khronos glTF Blender I/O v1.6.16",
        "version" : "2.0"
    },
    "scene" : 0,
    "scenes" : [
        {
            "name" : "Scene",
            "nodes" : [
                0
            ]
        }
    ],
    "nodes" : [
        {
            "mesh" : 0,
            "name" : "table"
        }
    ],
    "materials" : [
        {
            "doubleSided" : true,
            "name" : "table_wood",
            "pbrMetallicRoughness" : {
                "baseColorTexture" : {
                    "index" : 0
                },
                "metallicFactor" : 0,
                "roughnessFactor" : 0.4000000059604645
            }
        }
    ],
    "meshes" : [
        {
            "name" : "table",
            "primitives" : [
                {
                    "attributes" : {
                        "POSITION" : 0,
                        "NORMAL" : 1,
                        "TEXCOORD_0" : 2
                    },
                    "indices" : 3,
                    "material" : 0
                }
            ]
        }
    ],
    "textures" : [
        {
            "sampler" : 0,
            "source" : 0
        }
    ],
    "images" : [
        {
            "bufferView" : 4,
            "mimeType" : "image/png",
            "name" : "Material_Base_Color"
        }
    ],
    "accessors" : [
        {
            "bufferView" : 0,
            "componentType" : 5126,
            "count" : 2978,
            "max" : [
                0.9097931385040283,
                0.923688530921936,
                0.42491573095321655
            ],
            "min" : [
                -0.9089933633804321,
                0.003141939640045166,
                -0.42440780997276306
            ],
            "type" : "VEC3"
        },
        {
            "bufferView" : 1,
            "componentType" : 5126,
            "count" : 2978,
            "type" : "VEC3"
        },
        {
            "bufferView" : 2,
            "componentType" : 5126,
            "count" : 2978,
            "type" : "VEC2"
        },
        {
            "bufferView" : 3,
            "componentType" : 5123,
            "count" : 4452,
            "type" : "SCALAR"
        }
    ],
    "bufferViews" : [
        {
            "buffer" : 0,
            "byteLength" : 35736,
            "byteOffset" : 0
        },
        {
            "buffer" : 0,
            "byteLength" : 35736,
            "byteOffset" : 35736
        },
        {
            "buffer" : 0,
            "byteLength" : 23824,
            "byteOffset" : 71472
        },
        {
            "buffer" : 0,
            "byteLength" : 8904,
            "byteOffset" : 95296
        },
        {
            "buffer" : 0,
            "byteLength" : 1253610,
            "byteOffset" : 104200
        }
    ],
    "samplers" : [
        {
            "magFilter" : 9729,
            "minFilter" : 9987
        }
    ],
    "buffers" : [
        {
            "byteLength" : 1357812,
            "uri" : "data:application/octet-stream;base64,"
        }
    ]
}
